<svg xmlns="http://www.w3.org/2000/svg" x="0px" y="0px"
width="50" height="50"
viewBox="0 0 172 172"
style=" fill:#000000;"><g fill="none" fill-rule="nonzero" stroke="none" stroke-width="1" stroke-linecap="butt" stroke-linejoin="miter" stroke-miterlimit="10" stroke-dasharray="" stroke-dashoffset="0" font-family="none" font-weight="none" font-size="none" text-anchor="none" style="mix-blend-mode: normal"><path d="M0,172v-172h172v172z" fill="none"></path><g fill="#1e3a8a"><path d="M56.76,13.76c-17.43392,0 -31.6845,13.73624 -32.59266,30.94656c6.794,-9.86592 17.9503,-16.4733 30.65766,-17.0925c0.6364,-0.06192 1.2814,-0.09406 1.935,-0.09406h27.07656h53.76344v-13.76zM56.76,34.4c-18.01872,0 -32.68,14.66128 -32.68,32.68c0,18.01872 14.66128,32.68 32.68,32.68h55.04c12.32896,0 22.36,10.03104 22.36,22.36c0,12.32896 -10.03104,22.36 -22.36,22.36h-87.72v13.76h87.72c19.9176,0 36.12,-16.2024 36.12,-36.12c0,-19.9176 -16.2024,-36.12 -36.12,-36.12h-55.04c-10.43352,0 -18.92,-8.48992 -18.92,-18.92c0,-10.43008 8.48648,-18.92 18.92,-18.92h80.84v-13.76zM45.9361,61.93344c-0.75336,1.5652 -1.2161,3.2924 -1.2161,5.14656c0,6.6392 5.4008,12.04 12.04,12.04h25.35656h14.32437h15.35906c15.04656,0 28.28723,7.78069 35.97219,19.51797c-1.45856,-18.58976 -17.01435,-33.27797 -35.97219,-33.27797h-55.04c-4.0248,0 -7.75198,-1.27312 -10.8239,-3.42656zM126.68203,118.12235c-3.956,3.5432 -9.16475,5.71765 -14.88203,5.71765h-87.72v13.76h29.41469h58.30531c8.53464,0 15.48,-6.94536 15.48,-15.48c0,-1.39664 -0.24365,-2.71453 -0.59797,-3.99765z"></path></g></g></svg>